<svg width="194" height="29" fill="none" xmlns="http://www.w3.org/2000/svg"><path d="M133.823 1.546C131.726.519 129.293 0 126.504 0c-3.308 0-6.26.692-8.876 2.065-2.617 1.373-4.66 3.308-6.13 5.795-.238.41-.465.822-.66 1.243l1.698-8.487h-9.212l-1.946 9.676H92.87L94.827.616h-9.212l-3.697 18.477c.01-.238.021-.465.021-.714 0-1.61-.443-2.908-1.33-3.903a8.043 8.043 0 00-3.135-2.184c-1.21-.464-2.703-.908-4.465-1.33-1.46-.334-2.508-.648-3.135-.94-.638-.281-.951-.681-.951-1.167 0-.498.346-.92 1.048-1.287.703-.368 1.687-.54 2.963-.54 1.351 0 2.67.172 3.957.508 1.286.335 2.465.843 3.535 1.524l3.319-6.714c-1.276-.757-2.79-1.33-4.552-1.74C77.442.205 75.55 0 73.517 0c-2.832 0-5.297.422-7.373 1.265-2.087.843-3.676 2.043-4.779 3.59-1.102 1.545-1.654 3.35-1.654 5.405 0 1.643.454 2.962 1.352 3.957a8.387 8.387 0 003.146 2.227c1.2.487 2.703.951 4.53 1.427 1.373.335 2.39.649 3.027.94.638.282.951.66.951 1.136 0 .497-.313.887-.94 1.168-.627.292-1.525.432-2.692.432-3.2 0-6.27-.843-9.212-2.54l-2.346 4.486L52.111.638h-9.05L27.538 25.007 32.413.637H23.2l-1.946 9.677h-8.53L14.671.638H5.46L0 27.948h9.211l2.033-10.066h8.508L17.72 27.947h17.633l2.736-4.757H48.51l.897 4.757h9.157l-.27-1.146c.94.39 1.99.725 3.157 1.006 2.076.508 4.303.757 6.67.757 2.811 0 5.255-.422 7.341-1.265 2.076-.843 3.676-2.033 4.8-3.568a8.192 8.192 0 001.168-2.238l-1.286 6.454h9.211l2.033-10.065h8.508l-2.022 10.033 10.369-5.784 1.07-5.33a12.4 12.4 0 00.854 4.26l8.444-4.714a8.194 8.194 0 01-.022-.53c0-1.503.281-2.897.854-4.173.573-1.276 1.395-2.292 2.476-3.049 1.081-.757 2.346-1.135 3.806-1.135 1.665 0 2.973.486 3.924 1.449.27.27.497.573.692.897l7.99-4.454c-1.125-1.611-2.617-2.876-4.509-3.806zm-91.95 15.006l4.021-6.984 1.33 6.984h-5.351zM193.999.627l-1.449 7.136h-8l-4.022 20.174h-9.211l4.022-20.174h-7.828l-1.654 8.27c-.832 4.141-2.497 7.255-4.995 9.363-2.497 2.108-5.827 3.157-9.989 3.157-2.444 0-4.563-.411-6.336-1.233-1.784-.821-3.146-1.978-4.097-3.492-.887-1.405-1.352-3.027-1.417-4.876a15.435 15.435 0 01-.886 1.741c-1.471 2.487-3.514 4.411-6.13 5.795-2.617 1.373-5.579 2.065-8.876 2.065-2.779 0-5.222-.52-7.32-1.546-1.913-.94-3.427-2.216-4.53-3.85l7.99-4.453a4.3 4.3 0 00.724.951c.952.962 2.26 1.449 3.925 1.449 1.459 0 2.724-.379 3.805-1.135 1.081-.757 1.903-1.774 2.476-3.05.573-1.275.854-2.67.854-4.172 0-.206-.011-.411-.021-.606l8.422-4.703c.432 1.06.713 2.206.821 3.427l.876-4.367L151.521.714l-2.94 14.768c-.152.724-.238 1.395-.238 1.99 0 1.22.313 2.129.94 2.734.627.595 1.535.898 2.736.898 1.351 0 2.4-.433 3.156-1.287.757-.854 1.341-2.303 1.752-4.335L159.889.616h34.11v.011z" fill="#090909"/></svg>